<svg width="31" height="30" viewBox="0 0 31 30" fill="none" xmlns="http://www.w3.org/2000/svg">
<path id="Icon" d="M1.29297 1.29199H6.45964L9.9213 18.5874C10.0394 19.1821 10.3629 19.7163 10.8352 20.0965C11.3075 20.4766 11.8985 20.6786 12.5046 20.667H25.0596C25.6658 20.6786 26.2568 20.4766 26.7291 20.0965C27.2013 19.7163 27.5249 19.1821 27.643 18.5874L29.7096 7.75033H7.7513M12.918 27.1253C12.918 27.8387 12.3397 28.417 11.6263 28.417C10.9129 28.417 10.3346 27.8387 10.3346 27.1253C10.3346 26.412 10.9129 25.8337 11.6263 25.8337C12.3397 25.8337 12.918 26.412 12.918 27.1253ZM27.1263 27.1253C27.1263 27.8387 26.548 28.417 25.8346 28.417C25.1213 28.417 24.543 27.8387 24.543 27.1253C24.543 26.412 25.1213 25.8337 25.8346 25.8337C26.548 25.8337 27.1263 26.412 27.1263 27.1253Z" stroke="white" stroke-width="2" stroke-linecap="round" stroke-linejoin="round"/>
</svg>
