<svg width="60" height="38" viewBox="0 0 60 38" fill="none" xmlns="http://www.w3.org/2000/svg">
<path d="M1.13249 0.0167916H21.8341C23.8081 -0.151036 23.4201 1.57759 22.4078 2.13142C18.6622 4.19571 14.883 8.1061 17.11 15.1884C17.1775 15.3898 17.1775 15.608 17.1269 15.8094C16.7051 17.4541 15.1867 25.3924 24.5842 28.2287C25.3097 28.4469 25.6134 29.3028 25.1916 29.9237L20.923 36.3683C20.4506 37.09 19.3877 37.0397 18.9659 36.2844L0.137059 1.67829C-0.267863 0.923063 0.272033 0.0167916 1.13249 0.0167916Z" fill="#FEF7E8"/>
<path d="M37.5762 10.1366L44.8648 21.3475C45.236 21.9182 46.0796 21.851 46.3664 21.2468C48.1379 17.4372 52.069 6.52833 41.946 1.64453C41.1193 1.24175 41.3723 0.0166016 42.3003 0.0166016H59.1383C59.7963 0.0166016 60.2012 0.704696 59.8975 1.27531L40.6975 36.687C40.3938 37.2576 39.5671 37.2912 39.2128 36.7374L28.7185 20.5588C28.6848 20.5084 28.6679 20.4581 28.6342 20.4077C28.3642 19.7196 28.0943 15.9603 29.8996 10.9422C31.0975 7.61921 35.6528 7.18286 37.5762 10.1366Z" fill="#FEF7E8"/>
<path d="M25.7977 28.7997C25.8483 28.7494 25.8821 28.699 25.9327 28.6319C24.5324 28.2627 21.2255 27.2389 19.4371 25.376C19.4371 25.376 15.5566 22.2209 17.21 15.5077C17.21 15.5077 14.7636 9.93585 18.3067 5.53876C18.3067 5.53876 18.8128 4.26326 22.609 1.94724L23.2164 1.07453C23.2164 1.0074 23.3513 0.151477 22.7946 0.856354C22.0353 1.81297 13.1271 3.96117 16.4508 15.0882C16.4508 15.0882 13.4139 27.155 25.3591 29.4878C25.4772 29.2529 25.629 29.0179 25.7977 28.7997Z" fill="#FEF7E8"/>
<path d="M24.4828 30.8463C24.6009 30.6785 24.6853 30.5106 24.8034 30.3428C24.1791 30.1918 19.9106 29.0673 17.7848 26.5835C17.7848 26.5835 13.9043 23.0926 15.5577 15.6411C15.5577 15.6411 13.1113 9.44823 16.6543 4.58122C16.6543 4.58122 18.4934 1.92953 21.9858 0.0834242C21.311 0.100207 20.6192 0.0498586 19.9275 0.100207C16.6712 2.19806 12.487 6.59515 14.7816 15.1712C14.7816 15.1712 11.6097 28.9666 24.2129 31.2659C24.2804 31.1316 24.3985 30.9806 24.4828 30.8463Z" fill="#555A28"/>
<path d="M22.9312 33.2299C23.0155 33.1292 23.0493 33.0118 23.1336 32.9279C23.2011 32.8272 23.2855 32.6761 23.3698 32.5586C21.5814 31.9712 18.477 30.7461 16.6717 28.5811C16.6717 28.5811 12.302 24.5029 14.141 15.8262C14.141 15.8262 11.3909 8.60958 15.3895 2.93699C15.3895 2.93699 16.2837 1.61115 17.9877 0.0503484C17.8359 0.0503484 17.684 0 17.5322 0C17.3804 0.0167828 17.2285 0.0335656 17.0767 0.0335656C17.0598 0.0335656 16.9923 0.0335656 16.9079 0.0335656C16.7392 0.0671312 16.6043 0.083914 16.4524 0.083914C16.3681 0.083914 16.3006 0.083914 16.2331 0.083914C13.483 3.05447 11.3234 7.85435 13.2637 15.3059C13.2637 15.3059 9.95679 30.3265 22.5937 33.7334C22.695 33.5656 22.7962 33.3978 22.9312 33.2299Z" fill="#555A28"/>
<path d="M10.7324 21.0287C10.7999 21.0959 10.8505 21.2469 10.9011 21.3141C11.1542 21.7001 11.3904 22.17 11.5929 22.556C11.4242 20.4917 11.4917 17.9407 11.9978 15.0709C11.9978 15.0709 10.5468 3.94386 14.1236 0.0838121C14.0899 0.0838121 12.757 0.0670293 12.7064 0.0670293C12.3859 0.0670293 12.8077 0.0502465 12.4702 0.0670293C11.188 3.57464 9.90571 8.27382 11.1373 14.3828C11.1373 14.3828 10.5975 17.2191 10.7324 21.0287Z" fill="#555A28"/>
<path d="M10.8664 0.0836773C10.8664 0.0836773 8.28502 11.6806 10.6471 14.3658C10.6471 14.3658 9.07799 17.907 9.83722 19.3168L8.99363 17.7728C8.99363 17.7728 8.7743 16.984 9.63476 14.3323C9.63476 14.3323 8.47061 9.8177 8.82492 7.35063C8.82492 7.35063 9.46604 0.0668945 10.0059 0.0668945C10.6302 0.0836773 10.8664 0.0836773 10.8664 0.0836773Z" fill="#555A28"/>
<path d="M8.79192 0.0838586C8.77505 0.0838586 8.77505 0.0838586 8.75818 0.0670758C8.67382 0.0670758 8.58946 0.0670758 8.5051 0.050293C8.45449 0.050293 8.42074 0.0670758 8.387 0.050293C8.21828 0.050293 8.03269 0.0838586 7.8471 0.0670758C7.79649 0.0670758 7.74587 0.0670758 7.69526 0.0670758C7.20598 1.4097 6.7167 7.01516 6.7167 7.01516C6.36239 9.48223 7.54341 13.9968 7.54341 13.9968C7.44218 14.2989 7.39157 14.4499 7.32408 14.7017C7.3747 14.752 7.44218 14.9366 7.47593 15.0038C7.64464 15.2891 7.81336 15.5408 7.93146 15.7422C8.21828 14.7856 8.55572 14.0304 8.55572 14.0304C6.37926 11.5465 8.45449 1.64466 8.79192 0.0838586Z" fill="#555A28"/>
<path d="M6.22753 12.7211C6.22753 12.7211 5.3502 4.66538 6.83491 0.0668945H5.90696C5.90696 0.0668945 4.87779 7.35063 5.51891 11.3785L6.22753 12.7211Z" fill="#555A28"/>
<path d="M4.54192 9.63309C4.54192 9.63309 3.68146 4.66538 5.16617 0.0668945H4.40694C4.40694 0.0668945 3.19218 4.2626 3.8333 8.29047L4.54192 9.63309Z" fill="#555A28"/>
<path d="M3.0894 6.93088C3.0894 6.93088 2.09397 4.6652 3.57868 0.0834961H2.68448C2.68448 0.0834961 1.75654 1.62751 2.39766 5.65539L3.0894 6.93088Z" fill="#555A28"/>
<path d="M44.3242 0.185059C44.3242 0.185059 55.0715 6.44505 49.8582 18.9818C44.6448 31.5186 33.8975 28.2627 33.8975 28.2627L33.4082 27.5075C33.4082 27.5075 40.3594 28.6655 44.6448 24.604C48.9302 20.5426 49.8075 15.9273 49.8075 15.9273C49.8075 15.9273 52.0852 6.93175 42.9914 0.201841L44.3242 0.185059Z" fill="#555A28"/>
<path d="M32.4803 26.0638C32.4803 26.0638 40.1232 27.675 44.8135 21.4989L44.1218 20.4248C44.1218 20.4248 40.798 26.668 31.8223 25.1072L32.4803 26.0638Z" fill="#555A28"/>
<path d="M30.8611 23.6463C30.8611 23.6463 38.504 25.2575 43.1944 19.0814L42.5026 18.0073C42.5026 18.0073 39.7357 24.217 30.2031 22.6897L30.8611 23.6463Z" fill="#555A28"/>
<path d="M29.4939 21.4311C29.4939 21.4311 37.0862 23.0591 41.7766 16.883L41.1017 15.8257C41.1017 15.8257 38.0648 22.5388 28.8359 20.4577L29.4939 21.4311Z" fill="#555A28"/>
<path d="M28.4306 19.283C28.4306 19.283 35.7192 20.9445 40.4265 14.7685L39.9203 13.9629C39.9203 13.9629 35.618 20.4075 28.127 18.0075L28.4306 19.283Z" fill="#555A28"/>
<path d="M27.9244 16.8834C27.9244 16.8834 34.3188 18.7127 38.9416 12.6206L38.4692 11.7646C38.4692 11.7646 34.0151 18.2932 27.8906 15.4401L27.9244 16.8834Z" fill="#555A28"/>
<path d="M28.1953 11.9157C28.1953 11.9157 34.7922 12.5367 36.4287 8.6263L35.8382 7.73682C35.8382 7.73682 36.0744 11.0598 28.4821 10.892L28.1953 11.9157Z" fill="#555A28"/>
<path d="M27.873 14.2149C27.873 14.2149 33.6263 15.6246 37.7599 10.6737L37.0681 9.59961C37.0681 9.59961 36.8994 13.6275 27.9405 13.2247L27.873 14.2149Z" fill="#555A28"/>
<path d="M46.2812 0.184445C46.2812 0.184445 51.6296 2.50047 52.8612 13.8289L53.5867 12.5198C53.5867 12.5198 53.4011 7.55209 47.9684 0.150879L46.2812 0.184445Z" fill="#555A28"/>
<path d="M49.1309 0.150794C49.1309 0.150794 53.585 4.38006 54.243 11.3617L54.9685 9.98552C56.0145 9.56595 51.9316 -0.285559 50.8855 0.150794H49.1309Z" fill="#555A28"/>
<path d="M52.4746 0.150879C52.4746 0.150879 55.5453 3.44031 56.0345 8.05558L56.9119 6.52834C56.9119 6.52834 56.3382 2.83613 54.1787 0.150879H52.4746Z" fill="#555A28"/>
<path d="M56.2012 0.150879C56.2012 0.150879 58.1414 2.21516 58.1077 4.21232L58.7488 3.02074C58.7488 3.02074 58.7994 0.150879 57.4497 0.150879C56.5217 0.150879 56.2012 0.150879 56.2012 0.150879Z" fill="#555A28"/>
</svg>
